# Blender 4.0.1
# www.blender.org
mtllib innercorner.mtl
o Cube
v -1.000000 1.000000 -1.000000
v 1.000000 1.000000 -1.000000
v 1.000000 1.000000 1.000000
v -1.000000 -1.000000 0.000000
v 1.000000 1.000000 -0.000000
v -1.000000 1.000000 0.000000
v 0.000000 -1.000000 1.000000
v -0.000000 1.000000 -1.000000
v 0.000000 1.000000 1.000000
v 0.000000 -1.000000 1.000000
v -1.000000 -1.000000 0.000000
v -0.003083 -1.000000 0.921541
v -0.012312 -1.000000 0.843566
v -0.027630 -1.000000 0.766555
v -0.048943 -1.000000 0.690983
v -0.076120 -1.000000 0.617317
v -0.108993 -1.000000 0.546010
v -0.147360 -1.000000 0.477501
v -0.190983 -1.000000 0.412215
v -0.239594 -1.000000 0.350552
v -0.292893 -1.000000 0.292893
v -0.350552 -1.000000 0.239594
v -0.412215 -1.000000 0.190983
v -0.477501 -1.000000 0.147360
v -0.546010 -1.000000 0.108993
v -0.617317 -1.000000 0.076121
v -0.690983 -1.000000 0.048943
v -0.766555 -1.000000 0.027630
v -0.843566 -1.000000 0.012312
v -0.921541 -1.000000 0.003083
v -1.000000 1.000000 0.000000
v 0.000000 1.000000 1.000000
v 0.999950 1.000000 -0.000000
v -0.000000 1.000000 -0.999950
v -0.921541 1.000000 0.003083
v -0.843566 1.000000 0.012312
v -0.766555 1.000000 0.027630
v -0.690983 1.000000 0.048943
v -0.617317 1.000000 0.076121
v -0.546010 1.000000 0.108993
v -0.477501 1.000000 0.147360
v -0.412215 1.000000 0.190983
v -0.350552 1.000000 0.239594
v -0.292893 1.000000 0.292893
v -0.239594 1.000000 0.350552
v -0.190983 1.000000 0.412215
v -0.147360 1.000000 0.477501
v -0.108993 1.000000 0.546010
v -0.076120 1.000000 0.617317
v -0.048943 1.000000 0.690983
v -0.027630 1.000000 0.766555
v -0.012312 1.000000 0.843566
v -0.003083 1.000000 0.921541
vn -0.0000 1.0000 -0.0000
vn -0.9992 -0.0000 0.0393
vn -0.9931 -0.0000 0.1175
vn -0.9808 -0.0000 0.1951
vn -0.9625 -0.0000 0.2714
vn -0.9382 -0.0000 0.3461
vn -0.9081 -0.0000 0.4187
vn -0.8725 -0.0000 0.4886
vn -0.8315 -0.0000 0.5556
vn -0.7853 -0.0000 0.6191
vn -0.7343 -0.0000 0.6788
vn -0.6788 -0.0000 0.7343
vn -0.6191 -0.0000 0.7853
vn -0.5556 -0.0000 0.8315
vn -0.4886 -0.0000 0.8725
vn -0.4187 -0.0000 0.9081
vn -0.3461 -0.0000 0.9382
vn -0.2714 -0.0000 0.9625
vn -0.1951 -0.0000 0.9808
vn -0.1175 -0.0000 0.9931
vn -0.0393 -0.0000 0.9992
vt 0.750000 0.500000
vt 0.250000 0.500000
vt 0.625000 0.500000
vt 0.625006 0.625000
vt 0.625000 0.625000
vt 0.750000 0.749994
vt 0.875000 0.625000
vt 0.875000 0.750000
vt 0.750000 0.750000
vt 0.375000 0.125000
vt 0.625000 0.750000
vt 0.750000 0.625000
vt 0.793819 0.625000
vt 0.865193 0.625000
vt 0.365193 0.164230
vt 0.855446 0.625000
vt 0.355446 0.203217
vt 0.845819 0.625000
vt 0.345819 0.241723
vt 0.836373 0.625000
vt 0.336373 0.279509
vt 0.827165 0.625000
vt 0.327165 0.316342
vt 0.818251 0.625000
vt 0.318251 0.351995
vt 0.809688 0.625000
vt 0.309688 0.386249
vt 0.801527 0.625000
vt 0.301527 0.418893
vt 0.293819 0.449724
vt 0.250000 0.625000
vt 0.750000 0.581181
vt 0.250000 0.581181
vt 0.750000 0.573473
vt 0.250000 0.573473
vt 0.750000 0.565312
vt 0.250000 0.565312
vt 0.750000 0.556749
vt 0.250000 0.556749
vt 0.750000 0.547835
vt 0.250000 0.547835
vt 0.750000 0.538627
vt 0.250000 0.538627
vt 0.750000 0.529181
vt 0.250000 0.529181
vt 0.750000 0.519554
vt 0.250000 0.519554
vt 0.750000 0.509807
vt 0.250000 0.509807
s 0
usemtl Material
f 6/1/1 4/2/1 11/2/1 31/1/1
f 1/3/1 6/1/1 31/1/1 34/4/1 8/5/1
f 33/6/1 32/7/1 9/7/1 3/8/1 5/9/1
f 10/10/1 7/10/1 9/7/1 32/7/1
f 8/5/1 34/4/1 33/6/1 5/9/1 2/11/1
f 44/12/1 45/13/1 33/6/1
f 10/10/2 32/7/2 53/14/2 12/15/2
f 12/15/3 53/14/3 52/16/3 13/17/3
f 13/17/4 52/16/4 51/18/4 14/19/4
f 14/19/5 51/18/5 50/20/5 15/21/5
f 15/21/6 50/20/6 49/22/6 16/23/6
f 16/23/7 49/22/7 48/24/7 17/25/7
f 17/25/8 48/24/8 47/26/8 18/27/8
f 18/27/9 47/26/9 46/28/9 19/29/9
f 19/29/10 46/28/10 45/13/10 20/30/10
f 20/30/11 45/13/11 44/12/11 21/31/11
f 21/31/12 44/12/12 43/32/12 22/33/12
f 22/33/13 43/32/13 42/34/13 23/35/13
f 23/35/14 42/34/14 41/36/14 24/37/14
f 24/37/15 41/36/15 40/38/15 25/39/15
f 25/39/16 40/38/16 39/40/16 26/41/16
f 26/41/17 39/40/17 38/42/17 27/43/17
f 27/43/18 38/42/18 37/44/18 28/45/18
f 28/45/19 37/44/19 36/46/19 29/47/19
f 29/47/20 36/46/20 35/48/20 30/49/20
f 30/49/21 35/48/21 31/1/21 11/2/21
f 33/6/1 34/4/1 44/12/1
f 34/4/1 31/1/1 35/48/1
f 34/4/1 35/48/1 36/46/1
f 53/14/1 32/7/1 33/6/1
f 52/16/1 53/14/1 33/6/1
f 34/4/1 36/46/1 37/44/1
f 34/4/1 37/44/1 38/42/1
f 51/18/1 52/16/1 33/6/1
f 50/20/1 51/18/1 33/6/1
f 34/4/1 38/42/1 39/40/1
f 34/4/1 39/40/1 40/38/1
f 49/22/1 50/20/1 33/6/1
f 48/24/1 49/22/1 33/6/1
f 34/4/1 40/38/1 41/36/1
f 34/4/1 41/36/1 42/34/1
f 47/26/1 48/24/1 33/6/1
f 46/28/1 47/26/1 33/6/1
f 34/4/1 42/34/1 43/32/1
f 34/4/1 43/32/1 44/12/1
f 45/13/1 46/28/1 33/6/1
