# Blender 4.0.1
# www.blender.org
mtllib great_dodecahedron.mtl
o polyhedron.002
v 0.850651 0.000000 -0.525731
v -0.850651 0.000000 -0.525731
v 0.850651 0.000000 0.525731
v -0.850651 0.000000 0.525731
v 0.525731 0.850651 0.000000
v 0.525731 -0.850651 0.000000
v -0.525731 0.850651 0.000000
v -0.525731 -0.850651 0.000000
v 0.000000 0.525731 -0.850651
v 0.000000 0.525731 0.850651
v 0.000000 -0.525731 -0.850651
v 0.000000 -0.525731 0.850651
vn -0.5257 0.8507 -0.0000
vn -0.5257 -0.8507 -0.0000
vn 0.8507 -0.0000 0.5257
vn -0.0000 -0.5257 -0.8507
vn -0.8507 -0.0000 -0.5257
vn 0.8507 -0.0000 -0.5257
vn 0.5257 -0.8507 -0.0000
vn -0.0000 -0.5257 0.8507
vn -0.0000 0.5257 -0.8507
vn -0.8507 -0.0000 0.5257
vn -0.0000 0.5257 0.8507
vn 0.5257 0.8507 -0.0000
s 0
f 5//1 2//1 4//1
f 11//2 12//2 4//2
f 12//3 1//3 5//3
f 8//4 9//4 1//4
f 7//5 11//5 8//5
f 11//6 9//6 5//6
f 11//7 3//7 12//7
f 3//8 10//8 4//8
f 7//9 1//9 11//9
f 2//10 8//10 12//10
f 4//11 12//11 3//11
f 10//12 1//12 9//12
f 4//1 10//1 5//1
f 5//1 9//1 2//1
f 4//2 2//2 11//2
f 11//2 6//2 12//2
f 5//3 10//3 12//3
f 12//3 6//3 1//3
f 1//4 6//4 8//4
f 8//4 2//4 9//4
f 8//5 4//5 7//5
f 7//5 9//5 11//5
f 3//6 6//6 5//6
f 6//6 11//6 5//6
f 12//7 8//7 11//7
f 11//7 1//7 3//7
f 8//8 6//8 4//8
f 6//8 3//8 4//8
f 11//9 2//9 7//9
f 7//9 5//9 1//9
f 12//10 10//10 7//10
f 7//10 2//10 12//10
f 5//11 7//11 3//11
f 7//11 4//11 3//11
f 9//12 7//12 10//12
f 10//12 3//12 1//12
