# Blender 4.0.1
# www.blender.org
mtllib great_stellated_dodecahedron.mtl
o polyhedron.002
v 0.577350 0.577350 -0.577350
v -0.220528 0.356822 0.000000
v 0.356822 0.000000 0.220528
v 0.356822 0.000000 -0.220528
v 0.000000 0.220528 -0.356822
v 0.220528 0.356822 0.000000
v -0.000000 0.220528 0.356822
v -0.356822 0.000000 -0.220528
v -0.356822 0.000000 0.220528
v -0.356822 0.000000 0.934172
v -0.356822 0.000000 -0.220528
v -0.000000 -0.220528 0.356822
v -0.356822 0.000000 0.220528
v 0.220528 -0.356822 0.000000
v 0.000000 -0.220528 -0.356822
v -0.000000 0.220528 0.356822
v 0.000000 0.934172 0.356822
v 0.356822 0.000000 -0.220528
v 0.220528 0.356822 -0.000000
v 0.220528 -0.356822 0.000000
v -0.000000 -0.220528 0.356822
v -0.220528 0.356822 -0.000000
v 0.934172 0.356822 0.000000
v 0.220528 0.356822 -0.000000
v -0.000000 -0.220528 0.356822
v 0.356822 0.000000 0.220528
v -0.356822 -0.000000 0.220528
v 0.000000 0.220528 0.356822
v -0.220528 0.356822 0.000000
v 0.000000 -0.220528 0.356822
v -0.220528 -0.356822 0.000000
v -0.356822 0.000000 -0.220528
v -0.577350 0.577350 -0.577350
v -0.220528 0.356822 -0.000000
v 0.000000 0.934172 -0.356822
v 0.000000 0.220528 -0.356822
v -0.356822 0.000000 0.220528
v -0.220528 -0.356822 0.000000
v 0.000000 -0.220528 -0.356822
v 0.220528 0.356822 0.000000
v -0.577350 -0.577350 -0.577350
v -0.934172 0.356822 0.000000
v -0.220528 0.356822 0.000000
v -0.356822 0.000000 -0.220528
v 0.577350 -0.577350 -0.577350
v 0.356822 0.000000 -0.220528
v 0.000000 -0.220528 -0.356822
v 0.356822 0.000000 -0.220528
v -0.356822 -0.000000 -0.220528
v 0.000000 0.220528 -0.356822
v 0.000000 -0.934172 0.356822
v 0.220528 -0.356822 -0.000000
v -0.220528 -0.356822 -0.000000
v 0.220528 0.356822 -0.000000
v 0.000000 0.220528 -0.356822
v -0.356822 0.000000 -0.934172
v 0.000000 -0.220528 -0.356822
v 0.220528 -0.356822 -0.000000
v 0.577350 -0.577350 0.577350
v 0.356822 -0.000000 0.220528
v -0.220528 -0.356822 -0.000000
v -0.934172 -0.356822 0.000000
v -0.356822 0.000000 0.220528
v -0.577350 0.577350 0.577350
v 0.577350 0.577350 0.577350
v 0.000000 0.220528 0.356822
v 0.000000 -0.934172 -0.356822
v 0.220528 -0.356822 -0.000000
v 0.356822 -0.000000 0.220528
v 0.934172 -0.356822 0.000000
v 0.356822 0.000000 0.220528
v 0.356822 0.000000 -0.934172
v 0.356822 0.000000 -0.220528
v 0.000000 -0.220528 -0.356822
v -0.220528 -0.356822 0.000000
v -0.577350 -0.577350 0.577350
v 0.000000 -0.220528 0.356822
v 0.356822 0.000000 0.934172
vn 0.5257 0.8507 -0.0000
vn -0.5257 0.8507 -0.0000
vn -0.5257 -0.8507 -0.0000
vn 0.8507 -0.0000 0.5257
vn -0.0000 0.5257 0.8507
vn -0.8507 -0.0000 0.5257
vn -0.8507 -0.0000 -0.5257
vn -0.0000 0.5257 -0.8507
vn -0.0000 -0.5257 -0.8507
vn 0.8507 -0.0000 -0.5257
vn -0.0000 -0.5257 0.8507
vn 0.5257 -0.8507 -0.0000
s 0
f 3//1 4//1 5//1
f 7//2 5//2 9//2
f 15//3 12//3 11//3
f 18//4 19//4 16//4
f 27//5 25//5 26//5
f 31//6 30//6 28//6
f 36//7 38//7 34//7
f 43//8 46//8 44//8
f 50//9 52//9 49//9
f 55//10 60//10 57//10
f 66//11 63//11 61//11
f 77//12 75//12 74//12
f 5//1 33//1 2//1
f 2//1 64//1 7//1
f 7//1 78//1 3//1
f 3//1 70//1 4//1
f 4//1 72//1 5//1
f 5//1 2//1 7//1
f 7//1 3//1 5//1
f 7//2 65//2 6//2
f 6//2 1//2 5//2
f 5//2 56//2 8//2
f 8//2 62//2 9//2
f 9//2 10//2 7//2
f 7//2 6//2 5//2
f 5//2 8//2 9//2
f 15//3 45//3 14//3
f 14//3 59//3 12//3
f 12//3 10//3 13//3
f 13//3 42//3 11//3
f 11//3 56//3 15//3
f 15//3 14//3 12//3
f 12//3 13//3 11//3
f 21//4 51//4 20//4
f 20//4 45//4 18//4
f 18//4 1//4 19//4
f 19//4 17//4 16//4
f 16//4 10//4 21//4
f 21//4 20//4 16//4
f 20//4 18//4 16//4
f 24//5 35//5 22//5
f 22//5 42//5 27//5
f 27//5 76//5 25//5
f 25//5 59//5 26//5
f 26//5 23//5 24//5
f 24//5 22//5 26//5
f 22//5 27//5 26//5
f 28//6 17//6 29//6
f 29//6 33//6 32//6
f 32//6 41//6 31//6
f 31//6 51//6 30//6
f 30//6 78//6 28//6
f 28//6 29//6 32//6
f 32//6 31//6 28//6
f 36//7 72//7 39//7
f 39//7 67//7 38//7
f 38//7 76//7 37//7
f 37//7 64//7 34//7
f 34//7 35//7 36//7
f 36//7 39//7 38//7
f 38//7 37//7 34//7
f 43//8 17//8 40//8
f 40//8 23//8 46//8
f 46//8 45//8 47//8
f 47//8 41//8 44//8
f 44//8 42//8 43//8
f 43//8 40//8 46//8
f 46//8 47//8 44//8
f 50//9 1//9 48//9
f 48//9 70//9 52//9
f 52//9 51//9 53//9
f 53//9 62//9 49//9
f 49//9 33//9 50//9
f 50//9 48//9 52//9
f 52//9 53//9 49//9
f 55//10 35//10 54//10
f 54//10 65//10 60//10
f 60//10 59//10 58//10
f 58//10 67//10 57//10
f 57//10 56//10 55//10
f 55//10 54//10 60//10
f 60//10 58//10 57//10
f 61//11 67//11 68//11
f 68//11 70//11 69//11
f 69//11 65//11 66//11
f 66//11 64//11 63//11
f 63//11 62//11 61//11
f 61//11 68//11 69//11
f 69//11 66//11 61//11
f 73//12 23//12 71//12
f 71//12 78//12 77//12
f 77//12 76//12 75//12
f 75//12 41//12 74//12
f 74//12 72//12 73//12
f 73//12 71//12 74//12
f 71//12 77//12 74//12
